{
    "asset" : {
        "generator" : "Khronos glTF Blender I/O v1.5.17",
        "version" : "2.0"
    },
    "scene" : 0,
    "scenes" : [
        {
            "name" : "Scene",
            "nodes" : [
                0
            ]
        }
    ],
    "nodes" : [
        {
            "mesh" : 0,
            "name" : "FujiMAC300R\u6c14\u6cf5",
            "rotation" : [
                0.7071068286895752,
                0,
                0,
                0.7071068286895752
            ]
        }
    ],
    "meshes" : [
        {
            "name" : "FujiMAC300R\u6c14\u6cf5",
            "primitives" : [
                {
                    "attributes" : {
                        "POSITION" : 0,
                        "NORMAL" : 1
                    },
                    "indices" : 2
                }
            ]
        }
    ],
    "accessors" : [
        {
            "bufferView" : 0,
            "componentType" : 5126,
            "count" : 59739,
            "max" : [
                0.33000123500823975,
                0.18021783232688904,
                -3.1106173992156982e-06
            ],
            "min" : [
                1.2516975402832031e-06,
                0.00021782517433166504,
                -0.1980031132698059
            ],
            "type" : "VEC3"
        },
        {
            "bufferView" : 1,
            "componentType" : 5126,
            "count" : 59739,
            "type" : "VEC3"
        },
        {
            "bufferView" : 2,
            "componentType" : 5123,
            "count" : 83310,
            "type" : "SCALAR"
        }
    ],
    "bufferViews" : [
        {
            "buffer" : 0,
            "byteLength" : 716868,
            "byteOffset" : 0
        },
        {
            "buffer" : 0,
            "byteLength" : 716868,
            "byteOffset" : 716868
        },
        {
            "buffer" : 0,
            "byteLength" : 166620,
            "byteOffset" : 1433736
        }
    ],
    "buffers" : [
        {
            "byteLength" : 1600356,
            "uri" : "data:application/octet-stream;base64,"
        }
    ]
}
